#!OML:ASF E:\Steps\Project 1\Capture day 1\Session 2\Subject.ASF
:FULLY-SPECIFIED
:DEGREES
1
root 9.25693 16.2993 19.4373 -152.835 -2.24825 179.764
lowerback -30.6081 -1.79064 -6.00029
upperback -3.69673 -1.55471 0.412584
thorax 11.9753 -1.46789 2.99084
lowerneck -0.806714 0.142843 -4.73826
upperneck 9.02977 -0.581734 7.02555
head 3.12238 -0.376663 3.15875
rclavicle 5.98839e-015 -6.75868e-015
rhumerus -34.7345 -21.888 -79.208
rradius 25.149
rwrist 3.50918
rhand -10.8346 -53.1203
rfingers 7.12502
rthumb 15.1798 -82.5435
lclavicle 5.98839e-015 -6.75868e-015
lhumerus -28.9506 3.99197 85.6251
lradius 16.6221
lwrist -5.21472
lhand -23.9245 -13.0232
lfingers 7.12502
lthumb 2.55023 16.9413
rfemur -22.085 9.71373 17.6452
rtibia 6.62849
rfoot -19.978 -7.2942
rtoes -32.6789
lfemur -23.0988 -10.3483 -17.0967
ltibia 7.40637
lfoot -8.41376 1.47395
ltoes -31.1042
2
root 9.25484 16.2781 19.4477 -151.926 -2.20566 179.739
lowerback -31.6177 -1.7881 -5.92137
upperback -3.76833 -1.5797 0.344633
thorax 12.318 -1.51095 2.83302
lowerneck -0.709214 0.119728 -4.65598
upperneck 8.62433 -0.573301 6.99412
head 2.96351 -0.364508 3.12444
rclavicle -3.8763e-015 -7.95139e-016
rhumerus -34.5648 -21.7632 -79.5087
rradius 25.137
rwrist 3.49596
rhand -11.037 -52.5111
rfingers 7.12502
rthumb 14.9849 -81.9489
lclavicle -3.8763e-015 -7.95139e-016
lhumerus -28.7041 4.61016 85.4188
lradius 16.6442
lwrist -5.78276
lhand -23.6007 -12.8465
lfingers 7.12502
lthumb 2.86303 17.114
rfemur -23.2408 9.46439 17.42
rtibia 6.80883
rfoot -19.9758 -7.16959
rtoes -33.4086
lfemur -24.3153 -10.3242 -16.9261
ltibia 7.67153
lfoot -8.43687 1.57146
ltoes -31.783
3
root 9.24975 16.2567 19.4533 -151.188 -2.03945 179.821
lowerback -32.5276 -1.65263 -5.68161
upperback -3.81987 -1.48511 0.238433
thorax 12.6218 -1.48854 2.59821
lowerneck -0.496616 0.0824153 -4.5693
upperneck 8.20067 -0.594573 6.99203
head 2.78037 -0.370726 3.09775
rclavicle 5.56597e-015 1.43125e-014
rhumerus -34.4553 -22.0556 -79.5862
rradius 25.0065
rwrist 3.73339
rhand -10.7512 -52.703
rfingers 7.12502
rthumb 15.2601 -82.1201
lclavicle 5.56597e-015 1.43125e-014
lhumerus -28.5527 5.14995 85.2221
lradius 16.5819
lwrist -6.56761
lhand -23.4822 -12.9045
lfingers 7.12502
lthumb 2.97746 17.0545
rfemur -24.2878 9.34139 17.2959
rtibia 7.11413
rfoot -19.9734 -6.95816
rtoes -33.4507
lfemur -25.2251 -10.4762 -16.6534
ltibia 7.78604
lfoot -8.42096 2.02506
ltoes -32.087
4
root 9.24742 16.2594 19.4559 -151.298 -2.02551 179.803
lowerback -32.5152 -1.6157 -5.55153
upperback -3.7207 -1.44595 0.136302
thorax 12.7231 -1.45824 2.43467
lowerneck -0.405258 0.0465871 -4.5055
upperneck 7.91538 -0.620309 6.99215
head 2.66818 -0.379175 3.07982
rclavicle -1.78906e-015 7.95139e-016
rhumerus -34.4581 -22.1489 -79.7163
rradius 25.0825
rwrist 3.757
rhand -10.4777 -52.8177
rfingers 7.12502
rthumb 15.5236 -82.2146
lclavicle -1.78906e-015 7.95139e-016
lhumerus -28.4152 5.82052 84.9677
lradius 16.3843
lwrist -7.92941
lhand -23.5515 -13.2314
lfingers 7.12502
lthumb 2.91048 16.7285
rfemur -24.1504 9.30143 17.2612
rtibia 7.02773
rfoot -19.9088 -6.90115
rtoes -33.1753
lfemur -25.1137 -10.6255 -16.6734
ltibia 7.79089
lfoot -8.39621 2.18566
ltoes -32.4476
5
root 9.24578 16.2612 19.4585 -151.367 -2.11413 179.723
lowerback -32.5869 -1.63565 -5.42877
upperback -3.58404 -1.46344 -0.00506131
thorax 12.9056 -1.45378 2.20713
lowerneck -0.312422 -0.0133483 -4.4976
upperneck 8.12626 -0.722923 6.89874
head 2.72739 -0.438932 3.04598
rclavicle 4.72114e-015 2.66371e-014
rhumerus -34.3554 -22.2293 -79.9667
rradius 25.1093
rwrist 3.67741
rhand -10.19 -52.0214
rfingers 7.12502
rthumb 15.8006 -81.3966
lclavicle 4.72114e-015 2.66371e-014
lhumerus -28.1404 7.45455 84.249
lradius 16.4267
lwrist -9.77169
lhand -22.507 -12.8933
lfingers 7.12502
lthumb 3.91916 17.0504
rfemur -23.9776 9.10853 17.2417
rtibia 6.83855
rfoot -19.7823 -6.80259
rtoes -33.6634
lfemur -25.0823 -10.7249 -16.753
ltibia 7.86611
lfoot -8.38738 2.14249
ltoes -32.1225
6
root 9.23867 16.2704 19.4532 -151.827 -2.41644 179.563
lowerback -32.3326 -1.70034 -5.26664
upperback -3.36774 -1.5252 -0.207205
thorax 13.0464 -1.45124 1.88532
lowerneck -0.131043 -0.0550685 -4.37884
upperneck 8.01629 -0.782789 6.87287
head 2.65882 -0.470226 3.01004
rclavicle 9.69075e-015 1.07344e-014
rhumerus -34.2217 -22.5761 -80.1606
rradius 24.9438
rwrist 3.7752
rhand -9.77666 -50.9856
rfingers 7.12502
rthumb 16.1987 -80.3288
lclavicle 9.69075e-015 1.07344e-014
lhumerus -27.9676 7.43473 84.0616
lradius 16.5069
lwrist -10.1665
lhand -21.7693 -12.779
lfingers 7.12502
lthumb 4.63149 17.1504
rfemur -23.2135 8.74998 17.2481
rtibia 6.51901
rfoot -19.6517 -6.78932
rtoes -34.1165
lfemur -24.5565 -11.0593 -16.9727
ltibia 7.83402
lfoot -8.38532 2.15147
ltoes -32.4831
7
root 9.23801 16.2742 19.4564 -151.975 -2.59966 179.478
lowerback -32.079 -1.75959 -5.35684
upperback -3.39967 -1.5767 -0.220939
thorax 12.9076 -1.47265 1.90649
lowerneck -0.0780742 -0.0987911 -4.32106
upperneck 7.97161 -0.834934 6.79753
head 2.63563 -0.496545 2.97091
rclavicle -5.81445e-015 7.95139e-016
rhumerus -34.3598 -22.8757 -79.9883
rradius 24.8591
rwrist 3.93401
rhand -9.49929 -50.5062
rfingers 7.12502
rthumb 16.4658 -79.8274
lclavicle -5.81445e-015 7.95139e-016
lhumerus -28.0393 7.30931 84.1987
lradius 16.5115
lwrist -10.2209
lhand -21.6794 -12.9169
lfingers 7.12502
lthumb 4.71836 17.0106
rfemur -22.9608 8.62883 17.2462
rtibia 6.43123
rfoot -19.6732 -6.80203
rtoes -33.1607
lfemur -24.4244 -11.0045 -17.1114
ltibia 7.87048
lfoot -8.40261 1.94897
ltoes -33.8783
8
root 9.23983 16.2745 19.4633 -151.926 -2.59732 179.454
lowerback -32.0365 -1.78259 -5.41395
upperback -3.42841 -1.59552 -0.211562
thorax 12.8588 -1.48458 1.94105
lowerneck -0.127125 -0.140632 -4.27372
upperneck 7.93492 -0.877682 6.71753
head 2.63344 -0.515364 2.93331
rclavicle -1.30701e-014 -1.11319e-014
rhumerus -34.4352 -23.0583 -79.8827
rradius 24.8819
rwrist 4.05668
rhand -9.54142 -50.5205
rfingers 7.12502
rthumb 16.4252 -79.8451
lclavicle -1.30701e-014 -1.11319e-014
lhumerus -28.0455 7.25973 84.342
lradius 16.5124
lwrist -10.2027
lhand -21.6536 -13.0498
lfingers 7.12502
lthumb 4.74325 16.8771
rfemur -23.0799 8.65353 17.1974
rtibia 6.51459
rfoot -19.7525 -6.76775
rtoes -32.3156
lfemur -24.5093 -10.9626 -17.1278
ltibia 7.89337
lfoot -8.44987 1.88683
ltoes -34.0641
9
root 9.24151 16.2733 19.4696 -151.843 -2.53255 179.416
lowerback -32.0634 -1.83855 -5.48346
upperback -3.42226 -1.64915 -0.160825
thorax 12.8834 -1.51365 2.01054
lowerneck -0.21785 -0.162296 -4.2936
upperneck 7.908 -0.888505 6.63623
head 2.64098 -0.518749 2.90913
rclavicle -1.00883e-014 0
rhumerus -34.3689 -22.8649 -79.9079
rradius 24.9611
rwrist 3.92569
rhand -9.63856 -50.5185
rfingers 7.12502
rthumb 16.3317 -79.8508
lclavicle -1.00883e-014 0
lhumerus -28.0222 7.41413 84.4474
lradius 16.6348
lwrist -10.4664
lhand -21.2139 -12.8
lfingers 7.12502
lthumb 5.16781 17.117
rfemur -23.2618 8.56035 17.1484
rtibia 6.6166
rfoot -19.7641 -6.66865
rtoes -32.4209
lfemur -24.6248 -10.9159 -17.175
ltibia 7.91626
lfoot -8.43035 1.92227
ltoes -33.6308
10
root 9.24218 16.2739 19.4737 -151.879 -2.49677 179.419
lowerback -31.991 -1.79226 -5.4969
upperback -3.47383 -1.59381 -0.198314
thorax 12.7883 -1.48971 2.00187
lowerneck -0.13733 -0.212218 -4.21801
upperneck 7.84479 -0.950847 6.56979
head 2.60688 -0.550206 2.86925
rclavicle 3.42904e-015 -1.03368e-014
rhumerus -34.5366 -22.8789 -79.8699
rradius 25.0281
rwrist 3.83492
rhand -9.60322 -50.5672
rfingers 7.12502
rthumb 16.3657 -79.8968
lclavicle 3.42904e-015 -1.03368e-014
lhumerus -28.2026 7.01262 84.6131
lradius 16.7582
lwrist -10.2253
lhand -21.2497 -13.088
lfingers 7.12502
lthumb 5.13323 16.8299
rfemur -23.2476 8.47048 17.1771
rtibia 6.6216
rfoot -19.7394 -6.57752
rtoes -32.576
lfemur -24.5892 -10.9938 -17.1527
ltibia 7.88347
lfoot -8.38815 1.97362
ltoes -32.2412
11
root 9.24251 16.2754 19.4779 -151.917 -2.55438 179.48
lowerback -31.927 -1.82741 -5.4274
upperback -3.49355 -1.67699 -0.120698
thorax 12.7479 -1.52351 2.01752
lowerneck -0.0888602 -0.225173 -4.33553
upperneck 7.79132 -0.956245 6.52652
head 2.58119 -0.556459 2.87539
rclavicle 6.01324e-015 -1.03368e-014
rhumerus -34.5174 -22.7876 -79.8018
rradius 24.9663
rwrist 3.89722
rhand -9.63584 -50.7609
rfingers 7.12502
rthumb 16.3343 -80.093
lclavicle 6.01324e-015 -1.03368e-014
lhumerus -28.3305 6.95907 84.8248
lradius 16.7046
lwrist -10.5069
lhand -22.3214 -13.7084
lfingers 7.12502
lthumb 4.09842 16.232
rfemur -23.2071 8.47787 17.266
rtibia 6.60786
rfoot -19.7178 -6.6006
rtoes -32.6776
lfemur -24.5845 -11.0961 -17.0255
ltibia 7.87148
lfoot -8.44866 1.95147
ltoes -30.9773
12
root 9.24617 16.2709 19.4867 -151.658 -2.43698 179.641
lowerback -32.1397 -1.71484 -5.34078
upperback -3.57881 -1.58165 -0.123265
thorax 12.7308 -1.48739 1.99937
lowerneck -0.0810388 -0.281253 -4.24764
upperneck 7.73173 -1.02254 6.45737
head 2.56179 -0.587318 2.83288
rclavicle -5.96354e-016 2.38542e-015
rhumerus -34.5704 -23.047 -79.7149
rradius 24.8897
rwrist 4.08847
rhand -9.65529 -50.7284
rfingers 7.12502
rthumb 16.3156 -80.062
lclavicle -5.96354e-016 2.38542e-015
lhumerus -28.3447 7.02331 84.7964
lradius 16.7655
lwrist -11.026
lhand -21.7052 -13.1496
lfingers 7.12502
lthumb 4.69347 16.7784
rfemur -23.6598 8.55793 17.3793
rtibia 6.80536
rfoot -19.7504 -6.49038
rtoes -32.6959
lfemur -24.9301 -10.9558 -16.8041
ltibia 7.92457
lfoot -8.50935 2.01096
ltoes -31.1599
